<?xml version="1.0" standalone="no"?>
<!DOCTYPE svg PUBLIC "-//W3C//DTD SVG 20010904//EN"
 "http://www.w3.org/TR/2001/REC-SVG-20010904/DTD/svg10.dtd">
<svg version="1.0" xmlns="http://www.w3.org/2000/svg"
 width="1024.000000pt" height="1024.000000pt" viewBox="0 0 1024.000000 1024.000000"
 preserveAspectRatio="xMidYMid meet">

<g transform="translate(0.000000,1024.000000) scale(0.100000,-0.100000)"
fill="#000000" stroke="none">
<path d="M2078 6515 c-378 -61 -707 -309 -883 -663 -204 -410 -174 -878 81
-1263 68 -104 231 -265 337 -334 231 -150 453 -211 727 -202 212 7 386 57 558
160 293 176 490 441 578 782 27 104 29 121 28 310 0 184 -2 208 -26 297 -25
90 -106 294 -114 285 -2 -2 -12 -48 -23 -102 -16 -88 -17 -104 -5 -139 20 -55
54 -227 54 -270 l0 -36 -85 0 -85 0 0 -55 0 -55 86 0 86 0 -7 -52 c-53 -414
-310 -763 -674 -919 -145 -61 -249 -82 -416 -82 -129 -1 -164 3 -250 25 -231
59 -388 150 -548 317 -115 121 -192 246 -250 406 -25 70 -53 198 -59 265 l-3
35 185 6 c176 5 189 7 265 36 l80 31 7 53 c3 30 11 106 17 169 10 99 24 188
46 278 l5 22 218 -2 217 -3 -4 -137 c-2 -76 -1 -138 2 -138 2 0 30 11 61 25
l56 25 0 115 0 115 214 0 c130 0 217 -4 221 -10 3 -5 23 2 46 17 38 25 40 29
34 62 -20 106 -120 320 -192 409 -19 23 -30 42 -25 42 46 0 257 -115 344 -187
51 -42 55 -44 103 -39 28 3 66 6 85 6 l35 1 -70 65 c-168 157 -386 270 -615
320 -104 22 -333 27 -442 9z m142 -350 l0 -235 -196 0 -195 0 6 23 c3 12 30
72 60 132 84 173 215 315 291 315 l34 0 0 -235z m229 196 c92 -69 182 -192
242 -334 22 -50 39 -92 39 -94 0 -2 -88 -3 -195 -3 l-195 0 0 235 0 235 29 0
c18 0 48 -14 80 -39z m-559 -63 c-47 -62 -128 -216 -160 -305 l-23 -63 -158 0
c-88 0 -159 3 -159 8 0 13 144 171 195 213 76 64 179 128 264 165 42 18 77 34
78 34 2 0 -15 -24 -37 -52z m-220 -490 c0 -7 -9 -58 -20 -113 -10 -55 -25
-157 -31 -227 l-12 -128 -214 0 -215 0 6 28 c3 15 8 52 12 82 8 71 47 204 85
297 l31 73 179 0 c137 0 179 -3 179 -12z"/>
<path d="M3242 6034 c-34 -15 -197 -57 -265 -69 l-38 -6 41 -46 c22 -25 40
-51 40 -57 -1 -32 -340 -252 -575 -373 -254 -131 -793 -338 -1087 -417 l-53
-15 82 0 c163 -2 389 51 688 160 201 73 343 136 563 249 l172 89 0 -575 0
-576 28 17 c47 31 145 117 200 177 l52 58 0 455 0 455 -115 0 c-128 0 -144 10
-77 48 20 12 78 50 127 86 l90 65 56 -56 57 -55 26 110 c23 98 45 226 46 275
0 20 -13 21 -58 1z"/>
<path d="M5965 5753 c-150 -33 -225 -117 -225 -253 0 -146 68 -212 266 -260
143 -34 183 -69 170 -150 -21 -134 -271 -124 -293 12 -4 29 -10 37 -22 34 -9
-3 -45 -8 -80 -11 l-63 -7 6 -47 c20 -148 189 -243 373 -211 159 27 243 119
243 265 0 83 -22 138 -71 179 -43 36 -76 50 -197 83 -121 32 -150 47 -166 84
-37 89 48 167 156 144 62 -14 108 -63 108 -115 0 -16 5 -20 18 -16 9 3 45 10
80 17 50 9 62 15 58 28 -3 9 -9 34 -15 56 -13 50 -62 110 -109 134 -65 33
-174 48 -237 34z"/>
<path d="M7502 5745 c-74 -21 -108 -40 -157 -90 -56 -56 -89 -122 -109 -218
-50 -239 26 -462 184 -542 69 -35 163 -49 236 -36 201 37 314 198 314 448 0
160 -31 253 -112 339 -89 94 -232 134 -356 99z m141 -146 c57 -16 113 -71 137
-137 27 -71 29 -215 5 -298 -18 -63 -73 -130 -122 -151 -80 -33 -176 0 -224
76 -40 62 -50 106 -50 214 -1 147 47 248 136 288 46 22 66 23 118 8z"/>
<path d="M3950 5305 l0 -435 80 0 80 0 0 180 0 180 155 0 155 0 0 75 0 75
-155 0 -155 0 0 105 0 105 175 0 175 0 0 75 0 75 -255 0 -255 0 0 -435z"/>
<path d="M4600 5305 l0 -435 84 0 85 0 -2 435 -2 435 -82 0 -83 0 0 -435z"/>
<path d="M4940 5305 l0 -435 80 0 80 0 2 282 3 281 157 -279 157 -279 85 -3
86 -3 0 436 0 435 -85 0 -85 0 0 -277 0 -278 -158 275 -157 275 -83 3 -82 3 0
-436z"/>
<path d="M6470 5305 l0 -435 80 0 80 0 0 185 0 185 150 0 150 0 0 -185 0 -185
83 0 82 0 -2 432 -3 433 -80 3 -80 3 0 -176 0 -175 -150 0 -150 0 0 175 0 175
-80 0 -80 0 0 -435z"/>
<path d="M8090 5306 l0 -436 85 0 85 0 0 163 0 162 67 0 67 0 80 -163 80 -162
86 0 86 0 -88 173 c-48 94 -87 175 -88 179 0 4 9 9 19 13 11 3 38 24 60 47 95
94 95 282 1 376 -64 64 -105 74 -337 79 l-203 6 0 -437z m407 258 c52 -38 56
-136 9 -191 -23 -26 -29 -28 -135 -33 l-111 -5 0 128 0 129 104 -4 c87 -2 109
-7 133 -24z"/>
<path d="M8840 5305 l0 -435 260 0 260 0 0 75 0 75 -180 0 -180 0 0 110 0 111
160 -3 160 -3 0 78 0 78 -160 -3 -160 -3 0 103 0 102 175 0 175 0 0 75 0 75
-255 0 -255 0 0 -435z"/>
<path d="M2400 4780 c0 -445 2 -520 14 -520 27 0 150 29 206 48 l54 19 1 442
c0 244 -2 463 -4 487 l-3 44 -134 0 -134 0 0 -520z"/>
<path d="M1980 4696 l0 -394 68 -16 c61 -14 186 -36 205 -36 4 0 7 189 7 420
l0 420 -140 0 -140 0 0 -394z"/>
<path d="M1580 4736 l0 -195 78 -60 c67 -53 178 -121 196 -121 3 0 6 128 6
285 l0 285 -140 0 -140 0 0 -194z"/>
</g>
</svg>
